# xmcd
#
# Track frame offsets:
#       150
#       16857
#       28395
#       38091
#       48479
#       63329
#       80039
#       94801
#       106564
#       124571
#       137140
#       150216
#       163122
#       176326
#       191857
#       204879
#       219744
#       230711
#       243171
#       255031
#       270173
#       284499
#       301883
#
# Disc length: 4185 seconds
#
# Revision: 0
# Processed by: cddbd v1.4PL0 Copyright (c) Steve Scherf et al.
# Submitted via: WhereIsIt 3.26
#
DISCID=2d105717
DTITLE=The Settlers
DYEAR=1900
DGENRE=
TTITLE0=Digging On The Bloweriing Dam
TTITLE1=Lonely Travelling Mind of Mine
TTITLE2=Instrumental
TTITLE3=The Biggest Trout in Eucumbine
TTITLE4=The Year I Began With The Snowy Mountain Scheme
TTITLE5=Olaf, The Dozer Driver Man
TTITLE6=A Lonely Texan Man
TTITLE7=Brandy Mary's
TTITLE8=On Our Dam
TTITLE9=Hard Rock Drilling
TTITLE10=Farewell to Jindabyne
TTITLE11=The Big Construction Gang
TTITLE12=Longgone Pom
TTITLE13=We're Immigrants Working On The Snowy
TTITLE14=Goodbye To The Snowy Scheme
TTITLE15=Instrumental
TTITLE16=Kosiosoki Kitten
TTITLE17=Another Has Just Began
TTITLE18=Thredbow Slop
TTITLE19=Pedro
TTITLE20=Cooma Cavaliers
TTITLE21=Goodbye My Green Valley
TTITLE22=Long Weekend For Us
EXTD=Ongs From The Snowy Mountain Scheme
EXTT0=
EXTT1=
EXTT2=
EXTT3=
EXTT4=
EXTT5=
EXTT6=
EXTT7=
EXTT8=
EXTT9=
EXTT10=
EXTT11=
EXTT12=
EXTT13=
EXTT14=
EXTT15=
EXTT16=
EXTT17=
EXTT18=
EXTT19=
EXTT20=
EXTT21=
EXTT22=
PLAYORDER=
